ISO-10303-21;
HEADER;
FILE_DESCRIPTION (( 'STEP AP214' ),
    '1' );
FILE_NAME ('Fuselage Engine Monut.STEP',
    '2026-03-18T20:01:04',
    ( '' ),
    ( '' ),
    'SwSTEP 2.0',
    'SolidWorks 2025',
    '' );
FILE_SCHEMA (( 'AUTOMOTIVE_DESIGN' ));
ENDSEC;

DATA;
#1 = DIRECTION ( 'NONE',  ( -0.000000000000000000, -0.000000000000000000, -1.000000000000000000 ) ) ;
#2 = EDGE_LOOP ( 'NONE', ( #175, #423 ) ) ;
#3 = ORIENTED_EDGE ( 'NONE', *, *, #714, .F. ) ;
#4 = CARTESIAN_POINT ( 'NONE',  ( -26.00000000000000355, -12.92562254923998033, 0.000000000000000000 ) ) ;
#5 = MANIFOLD_SURFACE_SHAPE_REPRESENTATION ( 'Fuselage Engine Monut', ( #312, #160 ), #60 ) ;
#6 = CIRCLE ( 'NONE', #82, 1.249999999999997780 ) ;
#7 = EDGE_CURVE ( 'NONE', #405, #710, #372, .T. ) ;
#8 = CARTESIAN_POINT ( 'NONE',  ( 14.03575230545863839, 12.00000000000000178, 24.00000000000000355 ) ) ;
#9 = CARTESIAN_POINT ( 'NONE',  ( 20.00000000000000000, 17.50000000000000000, 0.000000000000000000 ) ) ;
#10 = CIRCLE ( 'NONE', #451, 0.7500000000000004441 ) ;
#11 = CARTESIAN_POINT ( 'NONE',  ( 25.94780672212955963, -12.92158457910186975, -1.499086240528643366 ) ) ;
#12 = CARTESIAN_POINT ( 'NONE',  ( -20.00000000000000000, -17.50000000000000000, 0.000000000000000000 ) ) ;
#13 = ADVANCED_FACE ( 'NONE', ( #233 ), #722, .F. ) ;
#14 = CARTESIAN_POINT ( 'NONE',  ( -21.25000000000000000, -17.50000000000000000, 0.000000000000000000 ) ) ;
#15 = CARTESIAN_POINT ( 'NONE',  ( 20.50000000000000000, -17.50000000000000000, 0.000000000000000000 ) ) ;
#16 = DIRECTION ( 'NONE',  ( -0.000000000000000000, -0.000000000000000000, -1.000000000000000000 ) ) ;
#17 = CARTESIAN_POINT ( 'NONE',  ( 26.94749451307777477, -1.890417469053219517E-15, -1.499080776290276695 ) ) ;
#18 = AXIS2_PLACEMENT_3D ( 'NONE', #474, #535, #250 ) ;
#19 = CARTESIAN_POINT ( 'NONE',  ( -14.03575230545863661, -23.99999999999999645, 0.000000000000000000 ) ) ;
#20 = DIRECTION ( 'NONE',  ( 1.000000000000000000, 0.000000000000000000, 0.000000000000000000 ) ) ;
#21 = DIRECTION ( 'NONE',  ( -0.000000000000000000, -0.000000000000000000, -1.000000000000000000 ) ) ;
#22 = EDGE_CURVE ( 'NONE', #600, #362, #213, .T. ) ;
#23 = AXIS2_PLACEMENT_3D ( 'NONE', #332, #692, #327 ) ;
#24 = LINE ( 'NONE', #755, #619 ) ;
#25 = CARTESIAN_POINT ( 'NONE',  ( -14.03575230545863661, 23.94765075494624540, -1.499086240528643366 ) ) ;
#26 = CARTESIAN_POINT ( 'NONE',  ( -14.03575230545863839, -10.50000000000000355, 0.000000000000000000 ) ) ;
#27 = DIRECTION ( 'NONE',  ( 0.000000000000000000, 0.9993908270190957621, 0.03489949670250101083 ) ) ;
#28 = DIRECTION ( 'NONE',  ( 1.000000000000000000, 0.000000000000000000, 0.000000000000000000 ) ) ;
#29 = DIRECTION ( 'NONE',  ( -1.000000000000000000, 0.000000000000000000, 0.000000000000000000 ) ) ;
#30 = EDGE_CURVE ( 'NONE', #464, #294, #781, .T. ) ;
#31 = FACE_OUTER_BOUND ( 'NONE', #363, .T. ) ;
#32 = CARTESIAN_POINT ( 'NONE',  ( -14.03575230545863839, 12.00000000000000178, 0.000000000000000000 ) ) ;
#33 = ORIENTED_EDGE ( 'NONE', *, *, #636, .T. ) ;
#34 = CARTESIAN_POINT ( 'NONE',  ( -26.94749451307776766, 6.545230339507718449E-15, -1.499080776290276695 ) ) ;
#35 = VECTOR ( 'NONE', #502, 39.37007874015748143 ) ;
#36 = VERTEX_POINT ( 'NONE', #369 ) ;
#37 = ADVANCED_FACE ( 'NONE', ( #391 ), #100, .T. ) ;
#38 = EDGE_LOOP ( 'NONE', ( #373, #539 ) ) ;
#39 = CARTESIAN_POINT ( 'NONE',  ( 26.83560147176650901, -12.99026945259673838, 24.00000000000000355 ) ) ;
#40 = EDGE_LOOP ( 'NONE', ( #754, #51 ) ) ;
#41 = DIRECTION ( 'NONE',  ( -0.03500365794815520071, -3.595729845791660261E-16, 0.9993871841935179079 ) ) ;
#42 = VERTEX_POINT ( 'NONE', #272 ) ;
#43 = CIRCLE ( 'NONE', #553, 1.249999999999997780 ) ;
#44 = AXIS2_PLACEMENT_3D ( 'NONE', #525, #108, #112 ) ;
#45 = CARTESIAN_POINT ( 'NONE',  ( 19.50000000000000000, -17.50000000000000000, 0.000000000000000000 ) ) ;
#46 = EDGE_CURVE ( 'NONE', #155, #542, #152, .T. ) ;
#47 = DIRECTION ( 'NONE',  ( -0.000000000000000000, -0.000000000000000000, -1.000000000000000000 ) ) ;
#48 = ORIENTED_EDGE ( 'NONE', *, *, #490, .T. ) ;
#49 = EDGE_CURVE ( 'NONE', #276, #101, #72, .T. ) ;
#50 = EDGE_LOOP ( 'NONE', ( #614, #98 ) ) ;
#51 = ORIENTED_EDGE ( 'NONE', *, *, #78, .T. ) ;
#52 = EDGE_LOOP ( 'NONE', ( #217, #3 ) ) ;
#53 = PLANE ( 'NONE',  #18 ) ;
#54 = VERTEX_POINT ( 'NONE', #453 ) ;
#55 = ORIENTED_EDGE ( 'NONE', *, *, #672, .F. ) ;
#56 = CIRCLE ( 'NONE', #776, 1.249999999999997780 ) ;
#57 = EDGE_CURVE ( 'NONE', #101, #276, #440, .T. ) ;
#58 = DIRECTION ( 'NONE',  ( -0.000000000000000000, -0.000000000000000000, -1.000000000000000000 ) ) ;
#59 = VERTEX_POINT ( 'NONE', #645 ) ;
#60 =( GEOMETRIC_REPRESENTATION_CONTEXT ( 3 ) GLOBAL_UNCERTAINTY_ASSIGNED_CONTEXT ( ( #638 ) ) GLOBAL_UNIT_ASSIGNED_CONTEXT ( ( #353, #769, #113 ) ) REPRESENTATION_CONTEXT ( 'NONE', 'WORKASPACE' ) );
#61 = DIRECTION ( 'NONE',  ( 6.410933539285720019E-18, 0.03489949670250101083, 0.9993908270190957621 ) ) ;
#62 = DIRECTION ( 'NONE',  ( -1.000000000000000000, 0.000000000000000000, 0.000000000000000000 ) ) ;
#63 = AXIS2_PLACEMENT_3D ( 'NONE', #457, #572, #29 ) ;
#64 = VERTEX_POINT ( 'NONE', #88 ) ;
#65 = FACE_BOUND ( 'NONE', #648, .T. ) ;
#66 = ORIENTED_EDGE ( 'NONE', *, *, #681, .T. ) ;
#67 = EDGE_CURVE ( 'NONE', #157, #779, #94, .T. ) ;
#68 = DIRECTION ( 'NONE',  ( -0.07713521243666547622, 0.9970206412117808004, 0.000000000000000000 ) ) ;
#69 = DIRECTION ( 'NONE',  ( -0.000000000000000000, 0.000000000000000000, -1.000000000000000000 ) ) ;
#70 = CARTESIAN_POINT ( 'NONE',  ( -20.00000000000000000, 17.50000000000000000, 0.000000000000000000 ) ) ;
#71 = DIRECTION ( 'NONE',  ( -0.000000000000000000, -0.000000000000000000, -1.000000000000000000 ) ) ;
#72 = CIRCLE ( 'NONE', #556, 0.4999999999999973910 ) ;
#73 = DIRECTION ( 'NONE',  ( 1.000000000000000000, 0.000000000000000000, 0.000000000000000000 ) ) ;
#74 = CARTESIAN_POINT ( 'NONE',  ( -14.03575230545863661, 23.99999999999999645, 0.000000000000000000 ) ) ;
#75 = LINE ( 'NONE', #265, #390 ) ;
#76 = LINE ( 'NONE', #313, #446 ) ;
#77 = DIRECTION ( 'NONE',  ( -1.000000000000000000, 0.000000000000000000, 0.000000000000000000 ) ) ;
#78 = EDGE_CURVE ( 'NONE', #515, #771, #180, .T. ) ;
#79 = LINE ( 'NONE', #743, #668 ) ;
#80 = EDGE_CURVE ( 'NONE', #230, #171, #567, .T. ) ;
#81 = AXIS2_PLACEMENT_3D ( 'NONE', #455, #471, #341 ) ;
#82 = AXIS2_PLACEMENT_3D ( 'NONE', #324, #691, #698 ) ;
#83 = CARTESIAN_POINT ( 'NONE',  ( 20.00000000000000000, -17.50000000000000000, 0.000000000000000000 ) ) ;
#84 = DIRECTION ( 'NONE',  ( -1.000000000000000000, 0.000000000000000000, 0.000000000000000000 ) ) ;
#85 = CARTESIAN_POINT ( 'NONE',  ( 27.84060292551549054, 2.475737244258238603E-16, 24.00000000000001066 ) ) ;
#86 = FACE_OUTER_BOUND ( 'NONE', #52, .T. ) ;
#87 = DIRECTION ( 'NONE',  ( -1.000000000000000000, 0.000000000000000000, 0.000000000000000000 ) ) ;
#88 = CARTESIAN_POINT ( 'NONE',  ( -26.00000000000000000, 12.92562254923998921, 0.000000000000000000 ) ) ;
#89 = DIRECTION ( 'NONE',  ( -1.000000000000000000, 0.000000000000000000, 0.000000000000000000 ) ) ;
#90 = ORIENTED_EDGE ( 'NONE', *, *, #80, .T. ) ;
#91 = LINE ( 'NONE', #578, #249 ) ;
#92 = ORIENTED_EDGE ( 'NONE', *, *, #389, .F. ) ;
#93 = AXIS2_PLACEMENT_3D ( 'NONE', #104, #715, #708 ) ;
#94 = LINE ( 'NONE', #34, #661 ) ;
#95 = EDGE_CURVE ( 'NONE', #724, #157, #748, .T. ) ;
#96 = ORIENTED_EDGE ( 'NONE', *, *, #244, .T. ) ;
#97 = DIRECTION ( 'NONE',  ( -0.000000000000000000, -0.000000000000000000, -1.000000000000000000 ) ) ;
#98 = ORIENTED_EDGE ( 'NONE', *, *, #57, .T. ) ;
#99 = DIRECTION ( 'NONE',  ( -0.000000000000000000, -0.000000000000000000, -1.000000000000000000 ) ) ;
#100 = CONICAL_SURFACE ( 'NONE', #23, 11.99999999999999467, 0.03490658503988663258 ) ;
#101 = VERTEX_POINT ( 'NONE', #505 ) ;
#102 = DIRECTION ( 'NONE',  ( -1.000000000000000000, 0.000000000000000000, 0.000000000000000000 ) ) ;
#103 = VERTEX_POINT ( 'NONE', #275 ) ;
#104 = CARTESIAN_POINT ( 'NONE',  ( 27.00000000000000711, 0.000000000000000000, 0.000000000000000000 ) ) ;
#105 = ORIENTED_EDGE ( 'NONE', *, *, #221, .T. ) ;
#106 = EDGE_CURVE ( 'NONE', #771, #515, #418, .T. ) ;
#107 = EDGE_CURVE ( 'NONE', #337, #408, #24, .T. ) ;
#108 = DIRECTION ( 'NONE',  ( -0.000000000000000000, 0.000000000000000000, -1.000000000000000000 ) ) ;
#109 = VERTEX_POINT ( 'NONE', #705 ) ;
#110 = CIRCLE ( 'NONE', #484, 12.83809846780193986 ) ;
#111 = CARTESIAN_POINT ( 'NONE',  ( 27.00000000000000711, 0.000000000000000000, 0.000000000000000000 ) ) ;
#112 = DIRECTION ( 'NONE',  ( -1.000000000000000000, 0.000000000000000000, 0.000000000000000000 ) ) ;
#113 =( NAMED_UNIT ( * ) SI_UNIT ( $, .STERADIAN. ) SOLID_ANGLE_UNIT ( ) );
#114 = AXIS2_PLACEMENT_3D ( 'NONE', #182, #482, #68 ) ;
#115 = ADVANCED_FACE ( 'NONE', ( #161 ), #334, .F. ) ;
#116 = ORIENTED_EDGE ( 'NONE', *, *, #469, .F. ) ;
#117 = FACE_BOUND ( 'NONE', #282, .T. ) ;
#118 = ORIENTED_EDGE ( 'NONE', *, *, #339, .T. ) ;
#119 = ORIENTED_EDGE ( 'NONE', *, *, #166, .F. ) ;
#120 = CIRCLE ( 'NONE', #616, 0.4999999999999973910 ) ;
#121 = EDGE_CURVE ( 'NONE', #653, #36, #649, .T. ) ;
#122 = DIRECTION ( 'NONE',  ( -0.07713521243666611460, 0.9970206412117806893, 0.000000000000000000 ) ) ;
#123 = CIRCLE ( 'NONE', #522, 1.249999999999997780 ) ;
#124 = CIRCLE ( 'NONE', #593, 12.83809846780193986 ) ;
#125 = VECTOR ( 'NONE', #617, 39.37007874015748143 ) ;
#126 = ORIENTED_EDGE ( 'NONE', *, *, #550, .F. ) ;
#127 = CARTESIAN_POINT ( 'NONE',  ( -20.00000000000000000, 17.50000000000000000, 0.000000000000000000 ) ) ;
#128 = ORIENTED_EDGE ( 'NONE', *, *, #454, .F. ) ;
#129 = EDGE_CURVE ( 'NONE', #546, #168, #130, .T. ) ;
#130 = CIRCLE ( 'NONE', #357, 1.249999999999997780 ) ;
#131 = ORIENTED_EDGE ( 'NONE', *, *, #701, .T. ) ;
#132 = CARTESIAN_POINT ( 'NONE',  ( -8.000000000000000000, -12.50000000000000000, 0.000000000000000000 ) ) ;
#133 = ADVANCED_FACE ( 'NONE', ( #149, #86 ), #752, .F. ) ;
#134 = EDGE_CURVE ( 'NONE', #508, #360, #266, .T. ) ;
#135 = LINE ( 'NONE', #263, #125 ) ;
#136 = VECTOR ( 'NONE', #61, 39.37007874015748143 ) ;
#137 = CARTESIAN_POINT ( 'NONE',  ( 14.03575230545863661, -23.99999999999999645, 0.000000000000000000 ) ) ;
#138 = CARTESIAN_POINT ( 'NONE',  ( -11.99999999999999822, 7.500000000000000000, 0.000000000000000000 ) ) ;
#139 = DIRECTION ( 'NONE',  ( 0.000000000000000000, 0.000000000000000000, 1.000000000000000000 ) ) ;
#140 = DIRECTION ( 'NONE',  ( 0.9964132831757507303, -0.07708822374937275568, 0.03489949670250101776 ) ) ;
#141 = AXIS2_PLACEMENT_3D ( 'NONE', #629, #398, #584 ) ;
#142 = CARTESIAN_POINT ( 'NONE',  ( 27.83560147176651256, 0.06464690335674751209, 24.00000000000000355 ) ) ;
#143 = CARTESIAN_POINT ( 'NONE',  ( -14.03575230545863661, -24.83809846780194519, 24.00000000000000355 ) ) ;
#144 = DIRECTION ( 'NONE',  ( -6.410933539285720019E-18, -0.03489949670250101083, -0.9993908270190957621 ) ) ;
#145 = DIRECTION ( 'NONE',  ( -0.000000000000000000, -0.000000000000000000, -1.000000000000000000 ) ) ;
#146 = DIRECTION ( 'NONE',  ( -0.03479551858029598238, 0.002691980092080121373, 0.9993908270190957621 ) ) ;
#147 = CIRCLE ( 'NONE', #592, 1.249999999999997780 ) ;
#148 = AXIS2_PLACEMENT_3D ( 'NONE', #355, #406, #761 ) ;
#149 = FACE_BOUND ( 'NONE', #40, .T. ) ;
#150 = CARTESIAN_POINT ( 'NONE',  ( 14.03575230545864017, 23.99999999999999645, 0.000000000000000000 ) ) ;
#151 = EDGE_CURVE ( 'NONE', #171, #600, #734, .T. ) ;
#152 = CIRCLE ( 'NONE', #466, 1.249999999999997780 ) ;
#153 = DIRECTION ( 'NONE',  ( 0.000000000000000000, -0.03489949670250101083, 0.9993908270190957621 ) ) ;
#154 = DIRECTION ( 'NONE',  ( -0.000000000000000000, -0.000000000000000000, -1.000000000000000000 ) ) ;
#155 = VERTEX_POINT ( 'NONE', #558 ) ;
#156 = CARTESIAN_POINT ( 'NONE',  ( -20.00000000000000000, 17.50000000000000000, 0.000000000000000000 ) ) ;
#157 = VERTEX_POINT ( 'NONE', #683 ) ;
#158 = LINE ( 'NONE', #588, #669 ) ;
#159 = VERTEX_POINT ( 'NONE', #737 ) ;
#160 = AXIS2_PLACEMENT_3D ( 'NONE', #511, #773, #576 ) ;
#161 = FACE_OUTER_BOUND ( 'NONE', #768, .T. ) ;
#162 = DIRECTION ( 'NONE',  ( -1.000000000000000000, 0.000000000000000000, 0.000000000000000000 ) ) ;
#163 = VERTEX_POINT ( 'NONE', #438 ) ;
#164 = EDGE_CURVE ( 'NONE', #710, #405, #570, .T. ) ;
#165 = AXIS2_PLACEMENT_3D ( 'NONE', #12, #145, #442 ) ;
#166 = EDGE_CURVE ( 'NONE', #103, #64, #328, .T. ) ;
#167 = SHAPE_DEFINITION_REPRESENTATION ( #316, #5 ) ;
#168 = VERTEX_POINT ( 'NONE', #386 ) ;
#169 = DIRECTION ( 'NONE',  ( -0.000000000000000000, -0.000000000000000000, -1.000000000000000000 ) ) ;
#170 = ORIENTED_EDGE ( 'NONE', *, *, #701, .F. ) ;
#171 = VERTEX_POINT ( 'NONE', #499 ) ;
#172 = FACE_BOUND ( 'NONE', #657, .T. ) ;
#173 = CIRCLE ( 'NONE', #399, 11.99999999999999467 ) ;
#174 =( LENGTH_UNIT ( ) NAMED_UNIT ( * ) SI_UNIT ( $, .METRE. ) );
#175 = ORIENTED_EDGE ( 'NONE', *, *, #512, .F. ) ;
#176 = EDGE_CURVE ( 'NONE', #245, #310, #677, .T. ) ;
#177 = DIRECTION ( 'NONE',  ( 0.000000000000000000, 0.000000000000000000, 1.000000000000000000 ) ) ;
#178 = CARTESIAN_POINT ( 'NONE',  ( -18.75000000000000000, -17.50000000000000000, 0.000000000000000000 ) ) ;
#179 = ORIENTED_EDGE ( 'NONE', *, *, #739, .F. ) ;
#180 = CIRCLE ( 'NONE', #611, 0.4999999999999996114 ) ;
#181 = EDGE_CURVE ( 'NONE', #360, #508, #697, .T. ) ;
#182 = CARTESIAN_POINT ( 'NONE',  ( -27.00000000000000000, 0.000000000000000000, 0.000000000000000000 ) ) ;
#183 = DIRECTION ( 'NONE',  ( 1.000000000000000000, 0.000000000000000000, 0.000000000000000000 ) ) ;
#184 = ORIENTED_EDGE ( 'NONE', *, *, #403, .F. ) ;
#185 = CIRCLE ( 'NONE', #472, 0.4999999999999996114 ) ;
#186 = DIRECTION ( 'NONE',  ( 1.000000000000000000, 0.000000000000000000, 0.000000000000000000 ) ) ;
#187 = ORIENTED_EDGE ( 'NONE', *, *, #295, .F. ) ;
#188 = VECTOR ( 'NONE', #443, 39.37007874015748854 ) ;
#189 = CONICAL_SURFACE ( 'NONE', #354, 11.99999999999999289, 0.03490658503988663258 ) ;
#190 = ORIENTED_EDGE ( 'NONE', *, *, #164, .F. ) ;
#191 = FACE_BOUND ( 'NONE', #38, .T. ) ;
#192 = EDGE_CURVE ( 'NONE', #243, #280, #10, .T. ) ;
#193 = CARTESIAN_POINT ( 'NONE',  ( -14.03575230545863839, 12.00000000000000178, 0.000000000000000000 ) ) ;
#194 = CARTESIAN_POINT ( 'NONE',  ( 20.00000000000000000, 17.50000000000000000, 0.000000000000000000 ) ) ;
#195 = CIRCLE ( 'NONE', #523, 1.249999999999997780 ) ;
#196 = LINE ( 'NONE', #317, #566 ) ;
#197 = CIRCLE ( 'NONE', #763, 0.9999999999999992228 ) ;
#198 = LINE ( 'NONE', #435, #667 ) ;
#199 = LINE ( 'NONE', #150, #706 ) ;
#200 = VECTOR ( 'NONE', #415, 39.37007874015748143 ) ;
#201 = DIRECTION ( 'NONE',  ( -1.000000000000000000, 0.000000000000000000, 0.000000000000000000 ) ) ;
#202 = CARTESIAN_POINT ( 'NONE',  ( 27.84060292551549054, 0.000000000000000000, 23.99999999999999645 ) ) ;
#203 = PLANE ( 'NONE',  #673 ) ;
#204 = VECTOR ( 'NONE', #516, 39.37007874015748143 ) ;
#205 = DIRECTION ( 'NONE',  ( 0.07713521243666544847, 0.9970206412117806893, 0.000000000000000000 ) ) ;
#206 = CARTESIAN_POINT ( 'NONE',  ( -27.83560147176650545, 0.06464690335674697086, 23.99999999999999645 ) ) ;
#207 = CARTESIAN_POINT ( 'NONE',  ( 20.00000000000000000, -17.50000000000000000, 0.000000000000000000 ) ) ;
#208 = DIRECTION ( 'NONE',  ( 0.000000000000000000, -0.9993908270190957621, 0.03489949670250101083 ) ) ;
#209 = AXIS2_PLACEMENT_3D ( 'NONE', #329, #140, #333 ) ;
#210 = CARTESIAN_POINT ( 'NONE',  ( -20.00000000000000000, -17.50000000000000000, 0.000000000000000000 ) ) ;
#211 = DIRECTION ( 'NONE',  ( 1.000000000000000000, 0.000000000000000000, 0.000000000000000000 ) ) ;
#212 = CIRCLE ( 'NONE', #277, 12.83809846780193986 ) ;
#213 = CIRCLE ( 'NONE', #240, 12.83809846780193986 ) ;
#214 = EDGE_LOOP ( 'NONE', ( #170, #646, #728, #301 ) ) ;
#215 = DIRECTION ( 'NONE',  ( -1.000000000000000000, 0.000000000000000000, 0.000000000000000000 ) ) ;
#216 = DIRECTION ( 'NONE',  ( 0.07713521243666544847, -0.9970206412117806893, 0.000000000000000000 ) ) ;
#217 = ORIENTED_EDGE ( 'NONE', *, *, #129, .F. ) ;
#218 = DIRECTION ( 'NONE',  ( -1.000000000000000000, 0.000000000000000000, 0.000000000000000000 ) ) ;
#219 = APPLICATION_PROTOCOL_DEFINITION ( 'draft international standard', 'automotive_design', 1998, #257 ) ;
#220 = VERTEX_POINT ( 'NONE', #742 ) ;
#221 = EDGE_CURVE ( 'NONE', #577, #308, #56, .T. ) ;
#222 = CARTESIAN_POINT ( 'NONE',  ( -20.00000000000000000, 17.50000000000000000, 0.000000000000000000 ) ) ;
#223 = VERTEX_POINT ( 'NONE', #202 ) ;
#224 = CIRCLE ( 'NONE', #606, 0.4999999999999996114 ) ;
#225 = AXIS2_PLACEMENT_3D ( 'NONE', #138, #559, #258 ) ;
#226 = DIRECTION ( 'NONE',  ( -1.000000000000000000, 0.000000000000000000, 0.000000000000000000 ) ) ;
#227 = ORIENTED_EDGE ( 'NONE', *, *, #378, .T. ) ;
#228 = VECTOR ( 'NONE', #205, 39.37007874015748854 ) ;
#229 = DIRECTION ( 'NONE',  ( -1.000000000000000000, 0.000000000000000000, 0.000000000000000000 ) ) ;
#230 = VERTEX_POINT ( 'NONE', #318 ) ;
#231 = EDGE_CURVE ( 'NONE', #675, #544, #173, .T. ) ;
#232 = VERTEX_POINT ( 'NONE', #251 ) ;
#233 = FACE_OUTER_BOUND ( 'NONE', #452, .T. ) ;
#234 = FACE_OUTER_BOUND ( 'NONE', #655, .T. ) ;
#235 = ORIENTED_EDGE ( 'NONE', *, *, #231, .T. ) ;
#236 = EDGE_CURVE ( 'NONE', #371, #395, #185, .T. ) ;
#237 = ORIENTED_EDGE ( 'NONE', *, *, #613, .F. ) ;
#238 = FACE_BOUND ( 'NONE', #711, .T. ) ;
#239 = VERTEX_POINT ( 'NONE', #25 ) ;
#240 = AXIS2_PLACEMENT_3D ( 'NONE', #479, #177, #665 ) ;
#241 = ORIENTED_EDGE ( 'NONE', *, *, #134, .T. ) ;
#242 = DIRECTION ( 'NONE',  ( -1.000000000000000000, 0.000000000000000000, 0.000000000000000000 ) ) ;
#243 = VERTEX_POINT ( 'NONE', #269 ) ;
#244 = EDGE_CURVE ( 'NONE', #544, #245, #264, .T. ) ;
#245 = VERTEX_POINT ( 'NONE', #137 ) ;
#246 = EDGE_CURVE ( 'NONE', #549, #699, #494, .T. ) ;
#247 = DIRECTION ( 'NONE',  ( -1.000000000000000000, 0.000000000000000000, 0.000000000000000000 ) ) ;
#248 = VECTOR ( 'NONE', #753, 39.37007874015748854 ) ;
#249 = VECTOR ( 'NONE', #102, 39.37007874015748143 ) ;
#250 = DIRECTION ( 'NONE',  ( -1.000000000000000000, 0.000000000000000000, 0.000000000000000000 ) ) ;
#251 = CARTESIAN_POINT ( 'NONE',  ( -20.50000000000000000, 17.50000000000000000, 0.000000000000000000 ) ) ;
#252 = AXIS2_PLACEMENT_3D ( 'NONE', #775, #731, #304 ) ;
#253 = DIRECTION ( 'NONE',  ( -1.000000000000000000, -0.000000000000000000, 0.000000000000000000 ) ) ;
#254 = CARTESIAN_POINT ( 'NONE',  ( -20.00000000000000000, -17.50000000000000000, 0.000000000000000000 ) ) ;
#255 = EDGE_CURVE ( 'NONE', #109, #220, #751, .T. ) ;
#256 = LINE ( 'NONE', #738, #434 ) ;
#257 = APPLICATION_CONTEXT ( 'automotive_design' ) ;
#258 = DIRECTION ( 'NONE',  ( -1.000000000000000000, 0.000000000000000000, 0.000000000000000000 ) ) ;
#259 = DIRECTION ( 'NONE',  ( -0.000000000000000000, -0.000000000000000000, -1.000000000000000000 ) ) ;
#260 = CARTESIAN_POINT ( 'NONE',  ( 21.25000000000000000, 17.50000000000000000, 0.000000000000000000 ) ) ;
#261 = PRODUCT_DEFINITION_FORMATION_WITH_SPECIFIED_SOURCE ( 'ANY', '', #325, .NOT_KNOWN. ) ;
#262 = EDGE_CURVE ( 'NONE', #285, #310, #198, .T. ) ;
#263 = CARTESIAN_POINT ( 'NONE',  ( 14.03575230545863661, -23.99999999999999645, 0.000000000000000000 ) ) ;
#264 = LINE ( 'NONE', #503, #704 ) ;
#265 = CARTESIAN_POINT ( 'NONE',  ( -26.00000000000000000, 12.92562254923998388, 0.000000000000000000 ) ) ;
#266 = CIRCLE ( 'NONE', #501, 1.249999999999997780 ) ;
#267 = EDGE_CURVE ( 'NONE', #239, #159, #621, .T. ) ;
#268 = DIRECTION ( 'NONE',  ( 0.07713521243666546234, -0.9970206412117806893, -0.000000000000000000 ) ) ;
#269 = CARTESIAN_POINT ( 'NONE',  ( -11.24999999999999822, 7.500000000000000000, 0.000000000000000000 ) ) ;
#270 = DIRECTION ( 'NONE',  ( -1.000000000000000000, 0.000000000000000000, 0.000000000000000000 ) ) ;
#271 = EDGE_CURVE ( 'NONE', #232, #476, #120, .T. ) ;
#272 = CARTESIAN_POINT ( 'NONE',  ( -26.83560147176650901, 12.99026945259673838, 23.99999999999999645 ) ) ;
#273 = DIRECTION ( 'NONE',  ( 0.000000000000000000, 0.000000000000000000, 1.000000000000000000 ) ) ;
#274 = ORIENTED_EDGE ( 'NONE', *, *, #506, .F. ) ;
#275 = CARTESIAN_POINT ( 'NONE',  ( -27.00000000000000000, 0.000000000000000000, 0.000000000000000000 ) ) ;
#276 = VERTEX_POINT ( 'NONE', #293 ) ;
#277 = AXIS2_PLACEMENT_3D ( 'NONE', #8, #488, #186 ) ;
#278 = DIRECTION ( 'NONE',  ( 0.000000000000000000, 0.000000000000000000, 1.000000000000000000 ) ) ;
#279 = AXIS2_PLACEMENT_3D ( 'NONE', #417, #725, #671 ) ;
#280 = VERTEX_POINT ( 'NONE', #400 ) ;
#281 = DIRECTION ( 'NONE',  ( -1.000000000000000000, 0.000000000000000000, 0.000000000000000000 ) ) ;
#282 = EDGE_LOOP ( 'NONE', ( #297, #33 ) ) ;
#283 = EDGE_CURVE ( 'NONE', #779, #239, #718, .T. ) ;
#284 = DIRECTION ( 'NONE',  ( -0.000000000000000000, -0.000000000000000000, -1.000000000000000000 ) ) ;
#285 = VERTEX_POINT ( 'NONE', #642 ) ;
#286 = AXIS2_PLACEMENT_3D ( 'NONE', #618, #71, #492 ) ;
#287 = CARTESIAN_POINT ( 'NONE',  ( 20.50000000000000000, 17.50000000000000000, 0.000000000000000000 ) ) ;
#288 = ORIENTED_EDGE ( 'NONE', *, *, #236, .T. ) ;
#289 = CONICAL_SURFACE ( 'NONE', #425, 11.99999999999999467, 0.03490658503988663258 ) ;
#290 = AXIS2_PLACEMENT_3D ( 'NONE', #582, #336, #702 ) ;
#291 = CARTESIAN_POINT ( 'NONE',  ( -14.03575230545863661, 23.99999999999999645, 0.000000000000000000 ) ) ;
#292 = VECTOR ( 'NONE', #612, 39.37007874015748143 ) ;
#293 = CARTESIAN_POINT ( 'NONE',  ( -20.50000000000000000, -17.50000000000000000, 0.000000000000000000 ) ) ;
#294 = VERTEX_POINT ( 'NONE', #462 ) ;
#295 = EDGE_CURVE ( 'NONE', #589, #463, #574, .T. ) ;
#296 = APPLICATION_PROTOCOL_DEFINITION ( 'draft international standard', 'automotive_design', 1998, #340 ) ;
#297 = ORIENTED_EDGE ( 'NONE', *, *, #356, .T. ) ;
#298 = CARTESIAN_POINT ( 'NONE',  ( 14.03575230545863839, -12.00000000000000178, 0.000000000000000000 ) ) ;
#299 = VERTEX_POINT ( 'NONE', #660 ) ;
#300 = CIRCLE ( 'NONE', #81, 11.94765075494624185 ) ;
#301 = ORIENTED_EDGE ( 'NONE', *, *, #662, .F. ) ;
#302 = CARTESIAN_POINT ( 'NONE',  ( -14.03575230545863839, 12.00000000000000178, 0.000000000000000000 ) ) ;
#303 = ORIENTED_EDGE ( 'NONE', *, *, #599, .T. ) ;
#304 = DIRECTION ( 'NONE',  ( -1.000000000000000000, 0.000000000000000000, 0.000000000000000000 ) ) ;
#305 = CARTESIAN_POINT ( 'NONE',  ( 26.00000000000000000, 12.92562254923998388, 0.000000000000000000 ) ) ;
#306 = ORIENTED_EDGE ( 'NONE', *, *, #246, .T. ) ;
#307 = PRODUCT_DEFINITION ( 'UNKNOWN', '', #261, #540 ) ;
#308 = VERTEX_POINT ( 'NONE', #712 ) ;
#309 = DIRECTION ( 'NONE',  ( -0.000000000000000000, -0.000000000000000000, -1.000000000000000000 ) ) ;
#310 = VERTEX_POINT ( 'NONE', #717 ) ;
#311 = DIRECTION ( 'NONE',  ( 0.000000000000000000, 0.000000000000000000, 1.000000000000000000 ) ) ;
#312 = SHELL_BASED_SURFACE_MODEL ( 'NONE', ( #756, #744, #315, #597, #686, #513 ) );
#313 = CARTESIAN_POINT ( 'NONE',  ( -14.03575230545863661, -23.94765075494624540, -1.499086240528643366 ) ) ;
#314 = DIRECTION ( 'NONE',  ( 1.000000000000000000, 0.000000000000000000, -0.000000000000000000 ) ) ;
#315 = OPEN_SHELL ( 'NONE', ( #412 ) ) ;
#316 = PRODUCT_DEFINITION_SHAPE ( 'NONE', 'NONE',  #307 ) ;
#317 = CARTESIAN_POINT ( 'NONE',  ( -14.03575230545863661, 24.83809846780194519, 24.00000000000000355 ) ) ;
#318 = CARTESIAN_POINT ( 'NONE',  ( -14.03575230545863839, -23.94765075494624540, -1.499086240528643366 ) ) ;
#319 = EDGE_CURVE ( 'NONE', #220, #109, #644, .T. ) ;
#320 = CARTESIAN_POINT ( 'NONE',  ( -14.03575230545863661, 23.99999999999999645, 0.000000000000000000 ) ) ;
#321 = CARTESIAN_POINT ( 'NONE',  ( -18.75000000000000000, 17.50000000000000000, 0.000000000000000000 ) ) ;
#322 = AXIS2_PLACEMENT_3D ( 'NONE', #647, #97, #757 ) ;
#323 = CARTESIAN_POINT ( 'NONE',  ( -14.03575230545863839, -12.00000000000000178, 0.000000000000000000 ) ) ;
#324 = CARTESIAN_POINT ( 'NONE',  ( 20.00000000000000000, 17.50000000000000000, 0.000000000000000000 ) ) ;
#325 = PRODUCT ( 'Fuselage Engine Monut', 'Fuselage Engine Monut', '', ( #459 ) ) ;
#326 = CIRCLE ( 'NONE', #764, 1.249999999999997780 ) ;
#327 = DIRECTION ( 'NONE',  ( 1.000000000000000000, 0.000000000000000000, 0.000000000000000000 ) ) ;
#328 = LINE ( 'NONE', #688, #228 ) ;
#329 = CARTESIAN_POINT ( 'NONE',  ( -27.00000000000000000, 0.000000000000000000, 0.000000000000000000 ) ) ;
#330 = EDGE_CURVE ( 'NONE', #551, #416, #197, .T. ) ;
#331 = EDGE_CURVE ( 'NONE', #230, #724, #300, .T. ) ;
#332 = CARTESIAN_POINT ( 'NONE',  ( -14.03575230545863839, -12.00000000000000178, 0.000000000000000000 ) ) ;
#333 = DIRECTION ( 'NONE',  ( 0.07713521243666547622, 0.9970206412117808004, 0.000000000000000000 ) ) ;
#334 = PLANE ( 'NONE',  #382 ) ;
#335 = CARTESIAN_POINT ( 'NONE',  ( 14.03575230545863661, 23.99999999999999645, 0.000000000000000000 ) ) ;
#336 = DIRECTION ( 'NONE',  ( -0.000000000000000000, -0.000000000000000000, -1.000000000000000000 ) ) ;
#337 = VERTEX_POINT ( 'NONE', #465 ) ;
#338 = DIRECTION ( 'NONE',  ( 0.07713522711597983750, 0.9970206400760158738, -4.216169000086287947E-07 ) ) ;
#339 = EDGE_CURVE ( 'NONE', #103, #675, #350, .T. ) ;
#340 = APPLICATION_CONTEXT ( 'automotive_design' ) ;
#341 = DIRECTION ( 'NONE',  ( 1.000000000000000000, 0.000000000000000000, 0.000000000000000000 ) ) ;
#342 = AXIS2_PLACEMENT_3D ( 'NONE', #393, #639, #575 ) ;
#343 = EDGE_LOOP ( 'NONE', ( #536, #116 ) ) ;
#344 = DIRECTION ( 'NONE',  ( -1.000000000000000000, 0.000000000000000000, 0.000000000000000000 ) ) ;
#345 = PLANE ( 'NONE',  #538 ) ;
#346 = FACE_OUTER_BOUND ( 'NONE', #716, .T. ) ;
#347 = ORIENTED_EDGE ( 'NONE', *, *, #331, .F. ) ;
#348 = DIRECTION ( 'NONE',  ( 0.07713521243666612848, -0.9970206412117806893, 0.000000000000000000 ) ) ;
#349 = ORIENTED_EDGE ( 'NONE', *, *, #368, .F. ) ;
#350 = LINE ( 'NONE', #652, #521 ) ;
#351 = ORIENTED_EDGE ( 'NONE', *, *, #626, .F. ) ;
#352 = VECTOR ( 'NONE', #689, 39.37007874015748854 ) ;
#353 =( CONVERSION_BASED_UNIT ( 'INCH', #658 ) LENGTH_UNIT ( ) NAMED_UNIT ( #623 ) );
#354 = AXIS2_PLACEMENT_3D ( 'NONE', #298, #426, #183 ) ;
#355 = CARTESIAN_POINT ( 'NONE',  ( 14.03575230545863839, -12.00000000000000178, -1.499086240528643366 ) ) ;
#356 = EDGE_CURVE ( 'NONE', #54, #532, #628, .T. ) ;
#357 = AXIS2_PLACEMENT_3D ( 'NONE', #207, #444, #215 ) ;
#358 = FACE_BOUND ( 'NONE', #719, .T. ) ;
#359 = ORIENTED_EDGE ( 'NONE', *, *, #7, .F. ) ;
#360 = VERTEX_POINT ( 'NONE', #656 ) ;
#361 = DIRECTION ( 'NONE',  ( -0.000000000000000000, 0.000000000000000000, -1.000000000000000000 ) ) ;
#362 = VERTEX_POINT ( 'NONE', #39 ) ;
#363 = EDGE_LOOP ( 'NONE', ( #583, #401, #547, #274 ) ) ;
#364 = VECTOR ( 'NONE', #122, 39.37007874015748854 ) ;
#365 = CIRCLE ( 'NONE', #461, 11.94765075494624007 ) ;
#366 = ADVANCED_FACE ( 'NONE', ( #172, #519 ), #414, .F. ) ;
#367 = CARTESIAN_POINT ( 'NONE',  ( 21.25000000000000000, 17.50000000000000000, 0.000000000000000000 ) ) ;
#368 = EDGE_CURVE ( 'NONE', #533, #517, #730, .T. ) ;
#369 = CARTESIAN_POINT ( 'NONE',  ( 26.94749451307777477, -2.945935974756485706E-18, -1.499080776290276917 ) ) ;
#370 = DIRECTION ( 'NONE',  ( -0.03479551858029598932, -0.002691980092080104026, 0.9993908270190957621 ) ) ;
#371 = VERTEX_POINT ( 'NONE', #598 ) ;
#372 = CIRCLE ( 'NONE', #252, 1.249999999999997780 ) ;
#373 = ORIENTED_EDGE ( 'NONE', *, *, #255, .T. ) ;
#374 = DIRECTION ( 'NONE',  ( -1.000000000000000000, 0.000000000000000000, 0.000000000000000000 ) ) ;
#375 = AXIS2_PLACEMENT_3D ( 'NONE', #594, #169, #528 ) ;
#376 = CARTESIAN_POINT ( 'NONE',  ( -14.03575230545863661, 23.94765075494624540, -1.499086240528643366 ) ) ;
#377 = DIRECTION ( 'NONE',  ( -0.000000000000000000, -0.000000000000000000, -1.000000000000000000 ) ) ;
#378 = EDGE_CURVE ( 'NONE', #416, #464, #91, .T. ) ;
#379 = LINE ( 'NONE', #376, #630 ) ;
#380 = DIRECTION ( 'NONE',  ( -1.000000000000000000, 0.000000000000000000, 0.000000000000000000 ) ) ;
#381 = FACE_OUTER_BOUND ( 'NONE', #214, .T. ) ;
#382 = AXIS2_PLACEMENT_3D ( 'NONE', #402, #27, #153 ) ;
#383 = DIRECTION ( 'NONE',  ( -0.000000000000000000, -0.000000000000000000, -1.000000000000000000 ) ) ;
#384 = DIRECTION ( 'NONE',  ( 1.000000000000000000, 0.000000000000000000, 0.000000000000000000 ) ) ;
#385 = DIRECTION ( 'NONE',  ( -1.000000000000000000, 0.000000000000000000, 0.000000000000000000 ) ) ;
#386 = CARTESIAN_POINT ( 'NONE',  ( 21.25000000000000000, -17.50000000000000000, 0.000000000000000000 ) ) ;
#387 = ADVANCED_FACE ( 'NONE', ( #346 ), #765, .T. ) ;
#388 = DIRECTION ( 'NONE',  ( -1.000000000000000000, 0.000000000000000000, 0.000000000000000000 ) ) ;
#389 = EDGE_CURVE ( 'NONE', #157, #337, #158, .T. ) ;
#390 = VECTOR ( 'NONE', #146, 39.37007874015748854 ) ;
#391 = FACE_OUTER_BOUND ( 'NONE', #663, .T. ) ;
#392 = CARTESIAN_POINT ( 'NONE',  ( 20.00000000000000000, 17.50000000000000000, 0.000000000000000000 ) ) ;
#393 = CARTESIAN_POINT ( 'NONE',  ( -14.03575230545863839, 12.00000000000000178, 0.000000000000000000 ) ) ;
#394 = DIRECTION ( 'NONE',  ( -0.000000000000000000, -0.000000000000000000, -1.000000000000000000 ) ) ;
#395 = VERTEX_POINT ( 'NONE', #287 ) ;
#396 = ORIENTED_EDGE ( 'NONE', *, *, #441, .T. ) ;
#397 = ORIENTED_EDGE ( 'NONE', *, *, #524, .T. ) ;
#398 = DIRECTION ( 'NONE',  ( -0.000000000000000000, -0.000000000000000000, -1.000000000000000000 ) ) ;
#399 = AXIS2_PLACEMENT_3D ( 'NONE', #323, #139, #20 ) ;
#400 = CARTESIAN_POINT ( 'NONE',  ( -12.75000000000000000, 7.500000000000000000, 0.000000000000000000 ) ) ;
#401 = ORIENTED_EDGE ( 'NONE', *, *, #121, .F. ) ;
#402 = CARTESIAN_POINT ( 'NONE',  ( -14.03575230545863661, -23.99999999999999645, 0.000000000000000000 ) ) ;
#403 = EDGE_CURVE ( 'NONE', #159, #42, #124, .T. ) ;
#404 = CARTESIAN_POINT ( 'NONE',  ( -25.94780672212955963, 12.92158457910186975, -1.499086240528643144 ) ) ;
#405 = VERTEX_POINT ( 'NONE', #178 ) ;
#406 = DIRECTION ( 'NONE',  ( -0.000000000000000000, -0.000000000000000000, -1.000000000000000000 ) ) ;
#407 = ORIENTED_EDGE ( 'NONE', *, *, #271, .T. ) ;
#408 = VERTEX_POINT ( 'NONE', #548 ) ;
#409 = CARTESIAN_POINT ( 'NONE',  ( -3.999999999999998668, -11.50000000000000178, 0.000000000000000000 ) ) ;
#410 = ORIENTED_EDGE ( 'NONE', *, *, #262, .F. ) ;
#411 = ORIENTED_EDGE ( 'NONE', *, *, #330, .T. ) ;
#412 = ADVANCED_FACE ( 'NONE', ( #65, #485 ), #604, .F. ) ;
#413 = EDGE_CURVE ( 'NONE', #299, #653, #365, .T. ) ;
#414 = PLANE ( 'NONE',  #44 ) ;
#415 = DIRECTION ( 'NONE',  ( 1.000000000000000000, 0.000000000000000000, 0.000000000000000000 ) ) ;
#416 = VERTEX_POINT ( 'NONE', #678 ) ;
#417 = CARTESIAN_POINT ( 'NONE',  ( -8.000000000000000000, -11.50000000000000178, 0.000000000000000000 ) ) ;
#418 = CIRCLE ( 'NONE', #63, 0.4999999999999996114 ) ;
#419 = LINE ( 'NONE', #305, #292 ) ;
#420 = ADVANCED_FACE ( 'NONE', ( #234 ), #189, .T. ) ;
#421 = VERTEX_POINT ( 'NONE', #367 ) ;
#422 = FACE_BOUND ( 'NONE', #650, .T. ) ;
#423 = ORIENTED_EDGE ( 'NONE', *, *, #735, .F. ) ;
#424 = EDGE_LOOP ( 'NONE', ( #713, #66, #411, #227 ) ) ;
#425 = AXIS2_PLACEMENT_3D ( 'NONE', #750, #627, #87 ) ;
#426 = DIRECTION ( 'NONE',  ( 0.000000000000000000, 0.000000000000000000, 1.000000000000000000 ) ) ;
#427 = ORIENTED_EDGE ( 'NONE', *, *, #107, .F. ) ;
#428 = ORIENTED_EDGE ( 'NONE', *, *, #695, .F. ) ;
#429 = CARTESIAN_POINT ( 'NONE',  ( 14.03575230545863839, 12.00000000000000178, -1.499086240528643366 ) ) ;
#430 = LINE ( 'NONE', #4, #486 ) ;
#431 = DIRECTION ( 'NONE',  ( -1.000000000000000000, 0.000000000000000000, 0.000000000000000000 ) ) ;
#432 = AXIS2_PLACEMENT_3D ( 'NONE', #127, #309, #62 ) ;
#433 = DIRECTION ( 'NONE',  ( -1.000000000000000000, -0.000000000000000000, -0.000000000000000000 ) ) ;
#434 = VECTOR ( 'NONE', #684, 39.37007874015748854 ) ;
#435 = CARTESIAN_POINT ( 'NONE',  ( 27.00000000000000711, 0.000000000000000000, 0.000000000000000000 ) ) ;
#436 = FACE_OUTER_BOUND ( 'NONE', #518, .T. ) ;
#437 = DIRECTION ( 'NONE',  ( -0.07713521243666612848, 0.9970206412117806893, -0.000000000000000000 ) ) ;
#438 = CARTESIAN_POINT ( 'NONE',  ( -14.03575230545863661, 23.99999999999999645, 0.000000000000000000 ) ) ;
#439 = FACE_OUTER_BOUND ( 'NONE', #475, .T. ) ;
#440 = CIRCLE ( 'NONE', #141, 0.4999999999999973910 ) ;
#441 = EDGE_CURVE ( 'NONE', #724, #408, #430, .T. ) ;
#442 = DIRECTION ( 'NONE',  ( -1.000000000000000000, 0.000000000000000000, 0.000000000000000000 ) ) ;
#443 = DIRECTION ( 'NONE',  ( -0.07713522711598044812, -0.9970206400760158738, -4.216169000507859421E-07 ) ) ;
#444 = DIRECTION ( 'NONE',  ( -0.000000000000000000, -0.000000000000000000, -1.000000000000000000 ) ) ;
#445 = CARTESIAN_POINT ( 'NONE',  ( 14.03575230545863661, -24.83809846780194519, 24.00000000000000355 ) ) ;
#446 = VECTOR ( 'NONE', #253, 39.37007874015748143 ) ;
#447 = CARTESIAN_POINT ( 'NONE',  ( -14.03575230545863661, -23.99999999999999645, 0.000000000000000000 ) ) ;
#448 = CARTESIAN_POINT ( 'NONE',  ( -25.94780672212955963, -12.92158457910185732, -1.499086240528643144 ) ) ;
#449 = ORIENTED_EDGE ( 'NONE', *, *, #413, .F. ) ;
#450 = ADVANCED_FACE ( 'NONE', ( #674, #664 ), #615, .F. ) ;
#451 = AXIS2_PLACEMENT_3D ( 'NONE', #631, #555, #84 ) ;
#452 = EDGE_LOOP ( 'NONE', ( #92, #605, #396, #427 ) ) ;
#453 = CARTESIAN_POINT ( 'NONE',  ( -21.25000000000000000, 17.50000000000000000, 0.000000000000000000 ) ) ;
#454 = EDGE_CURVE ( 'NONE', #473, #470, #212, .T. ) ;
#455 = CARTESIAN_POINT ( 'NONE',  ( -14.03575230545863839, -12.00000000000000178, -1.499086240528643366 ) ) ;
#456 = ORIENTED_EDGE ( 'NONE', *, *, #192, .T. ) ;
#457 = CARTESIAN_POINT ( 'NONE',  ( 20.00000000000000000, -17.50000000000000000, 0.000000000000000000 ) ) ;
#458 = AXIS2_PLACEMENT_3D ( 'NONE', #254, #377, #380 ) ;
#459 = PRODUCT_CONTEXT ( 'NONE', #257, 'mechanical' ) ;
#460 = CIRCLE ( 'NONE', #693, 0.4999999999999973910 ) ;
#461 = AXIS2_PLACEMENT_3D ( 'NONE', #429, #58, #601 ) ;
#462 = CARTESIAN_POINT ( 'NONE',  ( -8.000000000000000000, -10.50000000000000178, 0.000000000000000000 ) ) ;
#463 = VERTEX_POINT ( 'NONE', #541 ) ;
#464 = VERTEX_POINT ( 'NONE', #132 ) ;
#465 = CARTESIAN_POINT ( 'NONE',  ( -27.84060292551547988, -2.134256245050175210E-18, 23.99999999999999645 ) ) ;
#466 = AXIS2_PLACEMENT_3D ( 'NONE', #156, #99, #344 ) ;
#467 = ORIENTED_EDGE ( 'NONE', *, *, #441, .F. ) ;
#468 = EDGE_CURVE ( 'NONE', #473, #653, #419, .T. ) ;
#469 = EDGE_CURVE ( 'NONE', #542, #155, #670, .T. ) ;
#470 = VERTEX_POINT ( 'NONE', #780 ) ;
#471 = DIRECTION ( 'NONE',  ( -0.000000000000000000, -0.000000000000000000, -1.000000000000000000 ) ) ;
#472 = AXIS2_PLACEMENT_3D ( 'NONE', #194, #259, #680 ) ;
#473 = VERTEX_POINT ( 'NONE', #609 ) ;
#474 = CARTESIAN_POINT ( 'NONE',  ( -14.03575230545863839, 12.00000000000000178, 0.000000000000000000 ) ) ;
#475 = EDGE_LOOP ( 'NONE', ( #610, #449, #351, #128 ) ) ;
#476 = VERTEX_POINT ( 'NONE', #478 ) ;
#477 = VECTOR ( 'NONE', #314, 39.37007874015748143 ) ;
#478 = CARTESIAN_POINT ( 'NONE',  ( -19.50000000000000000, 17.50000000000000000, 0.000000000000000000 ) ) ;
#479 = CARTESIAN_POINT ( 'NONE',  ( 14.03575230545863839, -12.00000000000000178, 24.00000000000000355 ) ) ;
#480 = LINE ( 'NONE', #142, #740 ) ;
#481 = EDGE_LOOP ( 'NONE', ( #531, #105 ) ) ;
#482 = DIRECTION ( 'NONE',  ( 0.9964132831757507303, 0.07708822374937275568, 0.03489949670250101776 ) ) ;
#483 = EDGE_CURVE ( 'NONE', #699, #549, #195, .T. ) ;
#484 = AXIS2_PLACEMENT_3D ( 'NONE', #497, #273, #28 ) ;
#485 = FACE_OUTER_BOUND ( 'NONE', #2, .T. ) ;
#486 = VECTOR ( 'NONE', #370, 39.37007874015748143 ) ;
#487 = ADVANCED_FACE ( 'NONE', ( #238, #732, #191, #422, #358, #666, #117, #723 ), #53, .F. ) ;
#488 = DIRECTION ( 'NONE',  ( 0.000000000000000000, 0.000000000000000000, 1.000000000000000000 ) ) ;
#489 = DIRECTION ( 'NONE',  ( 1.000000000000000000, 0.000000000000000000, 0.000000000000000000 ) ) ;
#490 = EDGE_CURVE ( 'NONE', #285, #463, #733, .T. ) ;
#491 = CARTESIAN_POINT ( 'NONE',  ( -21.25000000000000000, -17.50000000000000000, 0.000000000000000000 ) ) ;
#492 = DIRECTION ( 'NONE',  ( -1.000000000000000000, 0.000000000000000000, 0.000000000000000000 ) ) ;
#493 = CARTESIAN_POINT ( 'NONE',  ( 25.94780672212955963, 12.92158457910186087, -1.499086240528643366 ) ) ;
#494 = CIRCLE ( 'NONE', #458, 1.249999999999997780 ) ;
#495 = CARTESIAN_POINT ( 'NONE',  ( 21.25000000000000000, -17.50000000000000000, 0.000000000000000000 ) ) ;
#496 = CARTESIAN_POINT ( 'NONE',  ( 20.00000000000000000, -17.50000000000000000, 0.000000000000000000 ) ) ;
#497 = CARTESIAN_POINT ( 'NONE',  ( -14.03575230545863839, -12.00000000000000178, 24.00000000000000355 ) ) ;
#498 = EDGE_CURVE ( 'NONE', #395, #371, #224, .T. ) ;
#499 = CARTESIAN_POINT ( 'NONE',  ( -14.03575230545863839, -24.83809846780194519, 24.00000000000000355 ) ) ;
#500 = CARTESIAN_POINT ( 'NONE',  ( -26.00000000000000355, -12.92562254923998566, 0.000000000000000000 ) ) ;
#501 = AXIS2_PLACEMENT_3D ( 'NONE', #700, #690, #568 ) ;
#502 = DIRECTION ( 'NONE',  ( 0.07713522711598048975, -0.9970206400760158738, 4.216169000086286359E-07 ) ) ;
#503 = CARTESIAN_POINT ( 'NONE',  ( -14.03575230545863661, -23.99999999999999645, 0.000000000000000000 ) ) ;
#504 = CARTESIAN_POINT ( 'NONE',  ( -18.75000000000000000, -17.50000000000000000, 0.000000000000000000 ) ) ;
#505 = CARTESIAN_POINT ( 'NONE',  ( -19.50000000000000000, -17.50000000000000000, 0.000000000000000000 ) ) ;
#506 = EDGE_CURVE ( 'NONE', #223, #473, #480, .T. ) ;
#507 = LINE ( 'NONE', #26, #659 ) ;
#508 = VERTEX_POINT ( 'NONE', #495 ) ;
#509 = CARTESIAN_POINT ( 'NONE',  ( 25.94780672212955608, 12.92158457910186087, -1.499086240528643366 ) ) ;
#510 = AXIS2_PLACEMENT_3D ( 'NONE', #302, #69, #554 ) ;
#511 = CARTESIAN_POINT ( 'NONE',  ( 0.000000000000000000, 0.000000000000000000, 0.000000000000000000 ) ) ;
#512 = EDGE_CURVE ( 'NONE', #59, #421, #123, .T. ) ;
#513 = OPEN_SHELL ( 'NONE', ( #133 ) ) ;
#514 = DIRECTION ( 'NONE',  ( -1.000000000000000000, 0.000000000000000000, 0.000000000000000000 ) ) ;
#515 = VERTEX_POINT ( 'NONE', #15 ) ;
#516 = DIRECTION ( 'NONE',  ( 0.000000000000000000, -0.03489949670250101083, 0.9993908270190957621 ) ) ;
#517 = VERTEX_POINT ( 'NONE', #624 ) ;
#518 = EDGE_LOOP ( 'NONE', ( #303, #237, #758, #179 ) ) ;
#519 = FACE_OUTER_BOUND ( 'NONE', #343, .T. ) ;
#520 = ORIENTED_EDGE ( 'NONE', *, *, #498, .T. ) ;
#521 = VECTOR ( 'NONE', #216, 39.37007874015748854 ) ;
#522 = AXIS2_PLACEMENT_3D ( 'NONE', #736, #383, #201 ) ;
#523 = AXIS2_PLACEMENT_3D ( 'NONE', #679, #545, #247 ) ;
#524 = EDGE_CURVE ( 'NONE', #600, #517, #135, .T. ) ;
#525 = CARTESIAN_POINT ( 'NONE',  ( -14.03575230545863839, 12.00000000000000178, 0.000000000000000000 ) ) ;
#526 = EDGE_LOOP ( 'NONE', ( #119, #118, #235, #96, #603, #410, #48, #187, #595, #428 ) ) ;
#527 = EDGE_CURVE ( 'NONE', #517, #230, #76, .T. ) ;
#528 = DIRECTION ( 'NONE',  ( 1.000000000000000000, 0.000000000000000000, 0.000000000000000000 ) ) ;
#529 = ORIENTED_EDGE ( 'NONE', *, *, #626, .T. ) ;
#530 = LINE ( 'NONE', #291, #200 ) ;
#531 = ORIENTED_EDGE ( 'NONE', *, *, #685, .T. ) ;
#532 = VERTEX_POINT ( 'NONE', #687 ) ;
#533 = VERTEX_POINT ( 'NONE', #11 ) ;
#534 = EDGE_CURVE ( 'NONE', #239, #299, #379, .T. ) ;
#535 = DIRECTION ( 'NONE',  ( -0.000000000000000000, 0.000000000000000000, -1.000000000000000000 ) ) ;
#536 = ORIENTED_EDGE ( 'NONE', *, *, #46, .F. ) ;
#537 = AXIS2_PLACEMENT_3D ( 'NONE', #709, #770, #162 ) ;
#538 = AXIS2_PLACEMENT_3D ( 'NONE', #111, #590, #348 ) ;
#539 = ORIENTED_EDGE ( 'NONE', *, *, #319, .T. ) ;
#540 = PRODUCT_DEFINITION_CONTEXT ( 'detailed design', #340, 'design' ) ;
#541 = CARTESIAN_POINT ( 'NONE',  ( 26.00000000000000355, 12.92562254923998744, 0.000000000000000000 ) ) ;
#542 = VERTEX_POINT ( 'NONE', #321 ) ;
#543 = EDGE_CURVE ( 'NONE', #476, #232, #460, .T. ) ;
#544 = VERTEX_POINT ( 'NONE', #19 ) ;
#545 = DIRECTION ( 'NONE',  ( -0.000000000000000000, -0.000000000000000000, -1.000000000000000000 ) ) ;
#546 = VERTEX_POINT ( 'NONE', #557 ) ;
#547 = ORIENTED_EDGE ( 'NONE', *, *, #468, .F. ) ;
#548 = CARTESIAN_POINT ( 'NONE',  ( -26.83560147176650901, -12.99026945259672594, 23.99999999999999645 ) ) ;
#549 = VERTEX_POINT ( 'NONE', #491 ) ;
#550 = EDGE_CURVE ( 'NONE', #470, #159, #196, .T. ) ;
#551 = VERTEX_POINT ( 'NONE', #682 ) ;
#552 = EDGE_CURVE ( 'NONE', #280, #243, #563, .T. ) ;
#553 = AXIS2_PLACEMENT_3D ( 'NONE', #694, #394, #388 ) ;
#554 = DIRECTION ( 'NONE',  ( -1.000000000000000000, 0.000000000000000000, 0.000000000000000000 ) ) ;
#555 = DIRECTION ( 'NONE',  ( -0.000000000000000000, -0.000000000000000000, -1.000000000000000000 ) ) ;
#556 = AXIS2_PLACEMENT_3D ( 'NONE', #210, #634, #218 ) ;
#557 = CARTESIAN_POINT ( 'NONE',  ( 18.75000000000000355, -17.50000000000000000, 0.000000000000000000 ) ) ;
#558 = CARTESIAN_POINT ( 'NONE',  ( -21.25000000000000000, 17.50000000000000000, 0.000000000000000000 ) ) ;
#559 = DIRECTION ( 'NONE',  ( -0.000000000000000000, -0.000000000000000000, -1.000000000000000000 ) ) ;
#560 = DIRECTION ( 'NONE',  ( -0.07713521243666611460, -0.9970206412117806893, 0.000000000000000000 ) ) ;
#561 = LINE ( 'NONE', #17, #188 ) ;
#562 = DIRECTION ( 'NONE',  ( -0.000000000000000000, -0.000000000000000000, -1.000000000000000000 ) ) ;
#563 = CIRCLE ( 'NONE', #225, 0.7500000000000004441 ) ;
#564 = CARTESIAN_POINT ( 'NONE',  ( 14.03575230545863839, -12.00000000000000178, 0.000000000000000000 ) ) ;
#565 = CARTESIAN_POINT ( 'NONE',  ( -14.03575230545863839, 12.00000000000000178, 0.000000000000000000 ) ) ;
#566 = VECTOR ( 'NONE', #433, 39.37007874015748143 ) ;
#567 = LINE ( 'NONE', #447, #204 ) ;
#568 = DIRECTION ( 'NONE',  ( -1.000000000000000000, 0.000000000000000000, 0.000000000000000000 ) ) ;
#569 = DIRECTION ( 'NONE',  ( -0.000000000000000000, -0.000000000000000000, -1.000000000000000000 ) ) ;
#570 = CIRCLE ( 'NONE', #165, 1.249999999999997780 ) ;
#571 = ADVANCED_FACE ( 'NONE', ( #741 ), #203, .F. ) ;
#572 = DIRECTION ( 'NONE',  ( -0.000000000000000000, -0.000000000000000000, -1.000000000000000000 ) ) ;
#573 = LINE ( 'NONE', #206, #352 ) ;
#574 = CIRCLE ( 'NONE', #537, 11.99999999999999467 ) ;
#575 = DIRECTION ( 'NONE',  ( -1.000000000000000000, 0.000000000000000000, 0.000000000000000000 ) ) ;
#576 = DIRECTION ( 'NONE',  ( 1.000000000000000000, 0.000000000000000000, 0.000000000000000000 ) ) ;
#577 = VERTEX_POINT ( 'NONE', #260 ) ;
#578 = CARTESIAN_POINT ( 'NONE',  ( -14.03575230545863839, -12.50000000000000355, 0.000000000000000000 ) ) ;
#579 = ORIENTED_EDGE ( 'NONE', *, *, #267, .T. ) ;
#580 = DIRECTION ( 'NONE',  ( -0.000000000000000000, -0.000000000000000000, -1.000000000000000000 ) ) ;
#581 = AXIS2_PLACEMENT_3D ( 'NONE', #564, #745, #384 ) ;
#582 = CARTESIAN_POINT ( 'NONE',  ( -20.00000000000000000, 17.50000000000000000, 0.000000000000000000 ) ) ;
#583 = ORIENTED_EDGE ( 'NONE', *, *, #633, .T. ) ;
#584 = DIRECTION ( 'NONE',  ( -1.000000000000000000, 0.000000000000000000, 0.000000000000000000 ) ) ;
#585 = ORIENTED_EDGE ( 'NONE', *, *, #527, .F. ) ;
#586 = PLANE ( 'NONE',  #93 ) ;
#587 = PRODUCT_RELATED_PRODUCT_CATEGORY ( 'part', '', ( #325 ) ) ;
#588 = CARTESIAN_POINT ( 'NONE',  ( -26.94749451307776766, 5.394332659364394996E-16, -1.499080776290276695 ) ) ;
#589 = VERTEX_POINT ( 'NONE', #335 ) ;
#590 = DIRECTION ( 'NONE',  ( -0.9964132831757507303, -0.07708822374937342181, 0.03489949670250101083 ) ) ;
#591 = ORIENTED_EDGE ( 'NONE', *, *, #151, .F. ) ;
#592 = AXIS2_PLACEMENT_3D ( 'NONE', #392, #154, #89 ) ;
#593 = AXIS2_PLACEMENT_3D ( 'NONE', #767, #311, #727 ) ;
#594 = CARTESIAN_POINT ( 'NONE',  ( -14.03575230545863839, 12.00000000000000178, -1.499086240528643366 ) ) ;
#595 = ORIENTED_EDGE ( 'NONE', *, *, #772, .F. ) ;
#596 = ORIENTED_EDGE ( 'NONE', *, *, #22, .F. ) ;
#597 = OPEN_SHELL ( 'NONE', ( #366 ) ) ;
#598 = CARTESIAN_POINT ( 'NONE',  ( 19.50000000000000000, 17.50000000000000000, 0.000000000000000000 ) ) ;
#599 = EDGE_CURVE ( 'NONE', #362, #533, #79, .T. ) ;
#600 = VERTEX_POINT ( 'NONE', #445 ) ;
#601 = DIRECTION ( 'NONE',  ( 1.000000000000000000, 0.000000000000000000, 0.000000000000000000 ) ) ;
#602 = ORIENTED_EDGE ( 'NONE', *, *, #524, .F. ) ;
#603 = ORIENTED_EDGE ( 'NONE', *, *, #176, .T. ) ;
#604 = PLANE ( 'NONE',  #707 ) ;
#605 = ORIENTED_EDGE ( 'NONE', *, *, #95, .F. ) ;
#606 = AXIS2_PLACEMENT_3D ( 'NONE', #720, #1, #242 ) ;
#607 = AXIS2_PLACEMENT_3D ( 'NONE', #32, #278, #514 ) ;
#608 = EDGE_LOOP ( 'NONE', ( #529, #676, #579, #126 ) ) ;
#609 = CARTESIAN_POINT ( 'NONE',  ( 26.83560147176650901, 12.99026945259672949, 24.00000000000000711 ) ) ;
#610 = ORIENTED_EDGE ( 'NONE', *, *, #468, .T. ) ;
#611 = AXIS2_PLACEMENT_3D ( 'NONE', #83, #580, #281 ) ;
#612 = DIRECTION ( 'NONE',  ( -0.03479551858029598238, -0.002691980092080144358, -0.9993908270190957621 ) ) ;
#613 = EDGE_CURVE ( 'NONE', #36, #533, #561, .T. ) ;
#614 = ORIENTED_EDGE ( 'NONE', *, *, #49, .T. ) ;
#615 = PLANE ( 'NONE',  #510 ) ;
#616 = AXIS2_PLACEMENT_3D ( 'NONE', #222, #47, #226 ) ;
#617 = DIRECTION ( 'NONE',  ( -0.000000000000000000, 0.03489949670250101083, -0.9993908270190957621 ) ) ;
#618 = CARTESIAN_POINT ( 'NONE',  ( 3.000000000000000444, 14.50000000000000355, 0.000000000000000000 ) ) ;
#619 = VECTOR ( 'NONE', #268, 39.37007874015748854 ) ;
#620 = DIRECTION ( 'NONE',  ( -1.000000000000000000, 0.000000000000000000, 0.000000000000000000 ) ) ;
#621 = LINE ( 'NONE', #74, #136 ) ;
#622 = DIRECTION ( 'NONE',  ( 0.000000000000000000, -0.03489949670250101083, -0.9993908270190957621 ) ) ;
#623 = DIMENSIONAL_EXPONENTS ( 1.000000000000000000, 0.000000000000000000, 0.000000000000000000, 0.000000000000000000, 0.000000000000000000, 0.000000000000000000, 0.000000000000000000 ) ;
#624 = CARTESIAN_POINT ( 'NONE',  ( 14.03575230545863661, -23.94765075494624540, -1.499086240528643366 ) ) ;
#625 = DIRECTION ( 'NONE',  ( -0.000000000000000000, -0.000000000000000000, -1.000000000000000000 ) ) ;
#626 = EDGE_CURVE ( 'NONE', #470, #299, #199, .T. ) ;
#627 = DIRECTION ( 'NONE',  ( 0.000000000000000000, 0.000000000000000000, 1.000000000000000000 ) ) ;
#628 = CIRCLE ( 'NONE', #290, 1.249999999999997780 ) ;
#629 = CARTESIAN_POINT ( 'NONE',  ( -20.00000000000000000, -17.50000000000000000, 0.000000000000000000 ) ) ;
#630 = VECTOR ( 'NONE', #73, 39.37007874015748143 ) ;
#631 = CARTESIAN_POINT ( 'NONE',  ( -11.99999999999999822, 7.500000000000000000, 0.000000000000000000 ) ) ;
#632 = PLANE ( 'NONE',  #209 ) ;
#633 = EDGE_CURVE ( 'NONE', #223, #36, #640, .T. ) ;
#634 = DIRECTION ( 'NONE',  ( -0.000000000000000000, -0.000000000000000000, -1.000000000000000000 ) ) ;
#635 = CARTESIAN_POINT ( 'NONE',  ( -20.00000000000000000, 17.50000000000000000, 0.000000000000000000 ) ) ;
#636 = EDGE_CURVE ( 'NONE', #532, #54, #326, .T. ) ;
#637 = ADVANCED_FACE ( 'NONE', ( #439 ), #289, .T. ) ;
#638 = UNCERTAINTY_MEASURE_WITH_UNIT (LENGTH_MEASURE( 1.000000000000000082E-05 ), #353, 'distance_accuracy_value', 'NONE');
#639 = DIRECTION ( 'NONE',  ( -0.000000000000000000, 0.000000000000000000, -1.000000000000000000 ) ) ;
#640 = LINE ( 'NONE', #85, #248 ) ;
#641 = EDGE_LOOP ( 'NONE', ( #190, #359 ) ) ;
#642 = CARTESIAN_POINT ( 'NONE',  ( 27.00000000000000711, 0.000000000000000000, 0.000000000000000000 ) ) ;
#643 = ORIENTED_EDGE ( 'NONE', *, *, #599, .F. ) ;
#644 = CIRCLE ( 'NONE', #322, 1.500000000000000888 ) ;
#645 = CARTESIAN_POINT ( 'NONE',  ( 18.75000000000000355, 17.50000000000000000, 0.000000000000000000 ) ) ;
#646 = ORIENTED_EDGE ( 'NONE', *, *, #67, .F. ) ;
#647 = CARTESIAN_POINT ( 'NONE',  ( 3.000000000000000444, 14.50000000000000355, 0.000000000000000000 ) ) ;
#648 = EDGE_LOOP ( 'NONE', ( #288, #520 ) ) ;
#649 = LINE ( 'NONE', #509, #35 ) ;
#650 = EDGE_LOOP ( 'NONE', ( #762, #241 ) ) ;
#651 = AXIS2_PLACEMENT_3D ( 'NONE', #496, #625, #431 ) ;
#652 = CARTESIAN_POINT ( 'NONE',  ( -27.00000000000000000, 0.000000000000000000, 0.000000000000000000 ) ) ;
#653 = VERTEX_POINT ( 'NONE', #493 ) ;
#654 = ORIENTED_EDGE ( 'NONE', *, *, #80, .F. ) ;
#655 = EDGE_LOOP ( 'NONE', ( #397, #349, #643, #596 ) ) ;
#656 = CARTESIAN_POINT ( 'NONE',  ( 18.75000000000000355, -17.50000000000000000, 0.000000000000000000 ) ) ;
#657 = EDGE_LOOP ( 'NONE', ( #407, #778 ) ) ;
#658 = LENGTH_MEASURE_WITH_UNIT ( LENGTH_MEASURE( 0.02539999999999999897 ), #174 );
#659 = VECTOR ( 'NONE', #211, 39.37007874015748143 ) ;
#660 = CARTESIAN_POINT ( 'NONE',  ( 14.03575230545863839, 23.94765075494624540, -1.499086240528643366 ) ) ;
#661 = VECTOR ( 'NONE', #338, 39.37007874015748854 ) ;
#662 = EDGE_CURVE ( 'NONE', #42, #337, #573, .T. ) ;
#663 = EDGE_LOOP ( 'NONE', ( #467, #347, #90, #55 ) ) ;
#664 = FACE_OUTER_BOUND ( 'NONE', #641, .T. ) ;
#665 = DIRECTION ( 'NONE',  ( 1.000000000000000000, 0.000000000000000000, 0.000000000000000000 ) ) ;
#666 = FACE_BOUND ( 'NONE', #481, .T. ) ;
#667 = VECTOR ( 'NONE', #560, 39.37007874015748854 ) ;
#668 = VECTOR ( 'NONE', #746, 39.37007874015748143 ) ;
#669 = VECTOR ( 'NONE', #41, 39.37007874015748143 ) ;
#670 = CIRCLE ( 'NONE', #432, 1.249999999999997780 ) ;
#671 = DIRECTION ( 'NONE',  ( -1.000000000000000000, 0.000000000000000000, 0.000000000000000000 ) ) ;
#672 = EDGE_CURVE ( 'NONE', #408, #171, #110, .T. ) ;
#673 = AXIS2_PLACEMENT_3D ( 'NONE', #320, #208, #622 ) ;
#674 = FACE_BOUND ( 'NONE', #50, .T. ) ;
#675 = VERTEX_POINT ( 'NONE', #500 ) ;
#676 = ORIENTED_EDGE ( 'NONE', *, *, #534, .F. ) ;
#677 = CIRCLE ( 'NONE', #581, 11.99999999999999289 ) ;
#678 = CARTESIAN_POINT ( 'NONE',  ( -3.999999999999996891, -12.50000000000000355, 0.000000000000000000 ) ) ;
#679 = CARTESIAN_POINT ( 'NONE',  ( -20.00000000000000000, -17.50000000000000000, 0.000000000000000000 ) ) ;
#680 = DIRECTION ( 'NONE',  ( -1.000000000000000000, 0.000000000000000000, 0.000000000000000000 ) ) ;
#681 = EDGE_CURVE ( 'NONE', #294, #551, #507, .T. ) ;
#682 = CARTESIAN_POINT ( 'NONE',  ( -3.999999999999999556, -10.50000000000000178, 0.000000000000000000 ) ) ;
#683 = CARTESIAN_POINT ( 'NONE',  ( -26.94749451307776766, -5.368976317974189219E-16, -1.499080776290276695 ) ) ;
#684 = DIRECTION ( 'NONE',  ( 0.07713521243666612848, 0.9970206412117806893, -0.000000000000000000 ) ) ;
#685 = EDGE_CURVE ( 'NONE', #308, #577, #6, .T. ) ;
#686 = OPEN_SHELL ( 'NONE', ( #450 ) ) ;
#687 = CARTESIAN_POINT ( 'NONE',  ( -18.75000000000000000, 17.50000000000000000, 0.000000000000000000 ) ) ;
#688 = CARTESIAN_POINT ( 'NONE',  ( -27.00000000000000000, 0.000000000000000000, 0.000000000000000000 ) ) ;
#689 = DIRECTION ( 'NONE',  ( -0.07713521243666546234, -0.9970206412117806893, -0.000000000000000000 ) ) ;
#690 = DIRECTION ( 'NONE',  ( -0.000000000000000000, -0.000000000000000000, -1.000000000000000000 ) ) ;
#691 = DIRECTION ( 'NONE',  ( -0.000000000000000000, -0.000000000000000000, -1.000000000000000000 ) ) ;
#692 = DIRECTION ( 'NONE',  ( 0.000000000000000000, 0.000000000000000000, 1.000000000000000000 ) ) ;
#693 = AXIS2_PLACEMENT_3D ( 'NONE', #70, #562, #620 ) ;
#694 = CARTESIAN_POINT ( 'NONE',  ( 20.00000000000000000, -17.50000000000000000, 0.000000000000000000 ) ) ;
#695 = EDGE_CURVE ( 'NONE', #64, #163, #766, .T. ) ;
#696 = DIRECTION ( 'NONE',  ( -0.07713522711597986525, 0.9970206400760158738, 4.216169000086289535E-07 ) ) ;
#697 = CIRCLE ( 'NONE', #651, 1.249999999999997780 ) ;
#698 = DIRECTION ( 'NONE',  ( -1.000000000000000000, 0.000000000000000000, 0.000000000000000000 ) ) ;
#699 = VERTEX_POINT ( 'NONE', #504 ) ;
#700 = CARTESIAN_POINT ( 'NONE',  ( 20.00000000000000000, -17.50000000000000000, 0.000000000000000000 ) ) ;
#701 = EDGE_CURVE ( 'NONE', #779, #42, #75, .T. ) ;
#702 = DIRECTION ( 'NONE',  ( -1.000000000000000000, 0.000000000000000000, 0.000000000000000000 ) ) ;
#703 = ORIENTED_EDGE ( 'NONE', *, *, #283, .F. ) ;
#704 = VECTOR ( 'NONE', #489, 39.37007874015748143 ) ;
#705 = CARTESIAN_POINT ( 'NONE',  ( 1.499999999999999334, 14.50000000000000355, 0.000000000000000000 ) ) ;
#706 = VECTOR ( 'NONE', #144, 39.37007874015748143 ) ;
#707 = AXIS2_PLACEMENT_3D ( 'NONE', #193, #361, #374 ) ;
#708 = DIRECTION ( 'NONE',  ( -0.07713521243666612848, -0.9970206412117806893, 0.000000000000000000 ) ) ;
#709 = CARTESIAN_POINT ( 'NONE',  ( 14.03575230545863839, 12.00000000000000178, 0.000000000000000000 ) ) ;
#710 = VERTEX_POINT ( 'NONE', #14 ) ;
#711 = EDGE_LOOP ( 'NONE', ( #760, #456 ) ) ;
#712 = CARTESIAN_POINT ( 'NONE',  ( 18.75000000000000355, 17.50000000000000000, 0.000000000000000000 ) ) ;
#713 = ORIENTED_EDGE ( 'NONE', *, *, #30, .T. ) ;
#714 = EDGE_CURVE ( 'NONE', #168, #546, #43, .T. ) ;
#715 = DIRECTION ( 'NONE',  ( -0.9964132831757507303, 0.07708822374937342181, 0.03489949670250101083 ) ) ;
#716 = EDGE_LOOP ( 'NONE', ( #774, #703, #131, #184 ) ) ;
#717 = CARTESIAN_POINT ( 'NONE',  ( 26.00000000000000000, -12.92562254923998921, 0.000000000000000000 ) ) ;
#718 = CIRCLE ( 'NONE', #375, 11.94765075494624185 ) ;
#719 = EDGE_LOOP ( 'NONE', ( #306, #782 ) ) ;
#720 = CARTESIAN_POINT ( 'NONE',  ( 20.00000000000000000, 17.50000000000000000, 0.000000000000000000 ) ) ;
#721 = VECTOR ( 'NONE', #696, 39.37007874015748854 ) ;
#722 = PLANE ( 'NONE',  #114 ) ;
#723 = FACE_OUTER_BOUND ( 'NONE', #526, .T. ) ;
#724 = VERTEX_POINT ( 'NONE', #448 ) ;
#725 = DIRECTION ( 'NONE',  ( -0.000000000000000000, -0.000000000000000000, -1.000000000000000000 ) ) ;
#726 = ADVANCED_FACE ( 'NONE', ( #381 ), #632, .F. ) ;
#727 = DIRECTION ( 'NONE',  ( 1.000000000000000000, 0.000000000000000000, 0.000000000000000000 ) ) ;
#728 = ORIENTED_EDGE ( 'NONE', *, *, #389, .T. ) ;
#729 = AXIS2_PLACEMENT_3D ( 'NONE', #565, #21, #270 ) ;
#730 = CIRCLE ( 'NONE', #148, 11.94765075494624007 ) ;
#731 = DIRECTION ( 'NONE',  ( -0.000000000000000000, -0.000000000000000000, -1.000000000000000000 ) ) ;
#732 = FACE_BOUND ( 'NONE', #424, .T. ) ;
#733 = LINE ( 'NONE', #777, #364 ) ;
#734 = LINE ( 'NONE', #143, #477 ) ;
#735 = EDGE_CURVE ( 'NONE', #421, #59, #147, .T. ) ;
#736 = CARTESIAN_POINT ( 'NONE',  ( 20.00000000000000000, 17.50000000000000000, 0.000000000000000000 ) ) ;
#737 = CARTESIAN_POINT ( 'NONE',  ( -14.03575230545863661, 24.83809846780194519, 24.00000000000000355 ) ) ;
#738 = CARTESIAN_POINT ( 'NONE',  ( 27.83560147176651256, -0.06464690335674751209, 24.00000000000000355 ) ) ;
#739 = EDGE_CURVE ( 'NONE', #362, #223, #256, .T. ) ;
#740 = VECTOR ( 'NONE', #437, 39.37007874015748854 ) ;
#741 = FACE_OUTER_BOUND ( 'NONE', #608, .T. ) ;
#742 = CARTESIAN_POINT ( 'NONE',  ( 4.500000000000000888, 14.50000000000000355, 0.000000000000000000 ) ) ;
#743 = CARTESIAN_POINT ( 'NONE',  ( 26.00000000000000000, -12.92562254923999454, 0.000000000000000000 ) ) ;
#744 = OPEN_SHELL ( 'NONE', ( #487 ) ) ;
#745 = DIRECTION ( 'NONE',  ( 0.000000000000000000, 0.000000000000000000, 1.000000000000000000 ) ) ;
#746 = DIRECTION ( 'NONE',  ( -0.03479551858029598238, 0.002691980092080147827, -0.9993908270190957621 ) ) ;
#747 = ADVANCED_FACE ( 'NONE', ( #436 ), #586, .F. ) ;
#748 = LINE ( 'NONE', #759, #721 ) ;
#749 = ADVANCED_FACE ( 'NONE', ( #31 ), #345, .F. ) ;
#750 = CARTESIAN_POINT ( 'NONE',  ( 14.03575230545863839, 12.00000000000000178, 0.000000000000000000 ) ) ;
#751 = CIRCLE ( 'NONE', #286, 1.500000000000000888 ) ;
#752 = PLANE ( 'NONE',  #342 ) ;
#753 = DIRECTION ( 'NONE',  ( -0.03500365794815624154, -1.030925030559274547E-17, -0.9993871841935177969 ) ) ;
#754 = ORIENTED_EDGE ( 'NONE', *, *, #106, .T. ) ;
#755 = CARTESIAN_POINT ( 'NONE',  ( -27.83560147176650545, -0.06464690335674697086, 23.99999999999999645 ) ) ;
#756 = OPEN_SHELL ( 'NONE', ( #115, #37, #420, #13, #747, #726, #749, #387, #637, #571 ) ) ;
#757 = DIRECTION ( 'NONE',  ( -1.000000000000000000, 0.000000000000000000, 0.000000000000000000 ) ) ;
#758 = ORIENTED_EDGE ( 'NONE', *, *, #633, .F. ) ;
#759 = CARTESIAN_POINT ( 'NONE',  ( -25.94780672212955608, -12.92158457910185021, -1.499086240528642922 ) ) ;
#760 = ORIENTED_EDGE ( 'NONE', *, *, #552, .T. ) ;
#761 = DIRECTION ( 'NONE',  ( 1.000000000000000000, 0.000000000000000000, 0.000000000000000000 ) ) ;
#762 = ORIENTED_EDGE ( 'NONE', *, *, #181, .T. ) ;
#763 = AXIS2_PLACEMENT_3D ( 'NONE', #409, #284, #229 ) ;
#764 = AXIS2_PLACEMENT_3D ( 'NONE', #635, #569, #385 ) ;
#765 = CONICAL_SURFACE ( 'NONE', #607, 11.99999999999999289, 0.03490658503988663258 ) ;
#766 = CIRCLE ( 'NONE', #729, 11.99999999999999289 ) ;
#767 = CARTESIAN_POINT ( 'NONE',  ( -14.03575230545863839, 12.00000000000000178, 24.00000000000000355 ) ) ;
#768 = EDGE_LOOP ( 'NONE', ( #654, #585, #602, #591 ) ) ;
#769 =( NAMED_UNIT ( * ) PLANE_ANGLE_UNIT ( ) SI_UNIT ( $, .RADIAN. ) );
#770 = DIRECTION ( 'NONE',  ( -0.000000000000000000, -0.000000000000000000, -1.000000000000000000 ) ) ;
#771 = VERTEX_POINT ( 'NONE', #45 ) ;
#772 = EDGE_CURVE ( 'NONE', #163, #589, #530, .T. ) ;
#773 = DIRECTION ( 'NONE',  ( 0.000000000000000000, 0.000000000000000000, 1.000000000000000000 ) ) ;
#774 = ORIENTED_EDGE ( 'NONE', *, *, #267, .F. ) ;
#775 = CARTESIAN_POINT ( 'NONE',  ( -20.00000000000000000, -17.50000000000000000, 0.000000000000000000 ) ) ;
#776 = AXIS2_PLACEMENT_3D ( 'NONE', #9, #16, #77 ) ;
#777 = CARTESIAN_POINT ( 'NONE',  ( 27.00000000000000711, 0.000000000000000000, 0.000000000000000000 ) ) ;
#778 = ORIENTED_EDGE ( 'NONE', *, *, #543, .T. ) ;
#779 = VERTEX_POINT ( 'NONE', #404 ) ;
#780 = CARTESIAN_POINT ( 'NONE',  ( 14.03575230545863839, 24.83809846780194519, 24.00000000000000355 ) ) ;
#781 = CIRCLE ( 'NONE', #279, 0.9999999999999992228 ) ;
#782 = ORIENTED_EDGE ( 'NONE', *, *, #483, .T. ) ;
ENDSEC;
END-ISO-10303-21;
